<?xml version="1.0" encoding="utf-8"?>
<svg id="Layer_1" data-name="Layer 1" width="460px" height="238.8" viewBox="0 0 450 238.8" xmlns="http://www.w3.org/2000/svg">
  <g transform="matrix(1, 0, 0, 1, -74.884239, -13.542894)">
    <path d="M279,153.75v-63h14.58v51.12h31.59v11.88h-46.17Z"/>
    <path d="M362.43,154.83c-4.86,0-9.38-.8-13.54-2.38-4.17-1.59-7.79-3.85-10.85-6.79-3.06-2.94-5.44-6.39-7.15-10.35s-2.57-8.31-2.57-13.05,.86-9.09,2.57-13.05,4.11-7.41,7.2-10.35c3.09-2.94,6.71-5.2,10.85-6.79,4.14-1.59,8.67-2.38,13.59-2.38,5.46,0,10.4,.95,14.81,2.83,4.41,1.89,8.11,4.67,11.11,8.33l-9.36,8.64c-2.16-2.46-4.56-4.3-7.2-5.54-2.64-1.23-5.52-1.84-8.64-1.84-2.94,0-5.64,.48-8.1,1.44-2.46,.96-4.59,2.34-6.39,4.14-1.8,1.8-3.19,3.93-4.19,6.39-.99,2.46-1.48,5.19-1.48,8.19s.5,5.73,1.48,8.19c.99,2.46,2.39,4.59,4.19,6.39,1.8,1.8,3.93,3.18,6.39,4.14,2.46,.96,5.16,1.44,8.1,1.44,3.12,0,6-.61,8.64-1.84,2.64-1.23,5.04-3.11,7.2-5.62l9.36,8.64c-3,3.66-6.7,6.45-11.11,8.37-4.41,1.92-9.38,2.88-14.9,2.88Z"/>
    <path d="M388.71,153.75l28.08-63h14.4l28.17,63h-15.3l-23.04-55.62h5.76l-23.13,55.62h-14.94Zm14.04-13.5l3.87-11.07h32.4l3.96,11.07h-40.23Z"/>
  </g>
  <path d="M 94.601 204.541 C 44.196 204.541 3.187 163.711 3.187 113.525 C 3.187 63.34 44.196 22.509 94.601 22.509 C 145.006 22.509 186.015 63.34 186.015 113.525 C 186.015 163.711 145.006 204.541 94.601 204.541 Z M 94.601 31.726 C 49.303 31.726 12.444 68.424 12.444 113.525 C 12.444 158.626 49.303 195.324 94.601 195.324 C 139.899 195.324 176.758 158.626 176.758 113.525 C 176.758 68.424 139.899 31.726 94.601 31.726 Z" style=""/>
  <path d="M 94.601 184.395 C 55.351 184.395 23.422 152.604 23.422 113.525 C 23.422 74.446 55.351 42.656 94.601 42.656 C 133.851 42.656 165.781 74.446 165.781 113.525 C 165.781 121.966 164.307 130.223 161.399 138.073 L 154.495 135.53 C 157.102 128.495 158.421 121.098 158.421 113.525 C 158.421 78.486 129.794 49.983 94.601 49.983 C 59.409 49.983 30.781 78.486 30.781 113.525 C 30.781 148.564 59.409 177.067 94.601 177.067 C 104.722 177.067 114.759 174.656 123.707 170.093 L 123.707 103.072 L 97.278 77.027 L 65.503 104.162 L 65.503 144.601 L 80.052 144.601 L 80.052 112.496 L 107.291 112.496 L 107.291 151.928 L 58.136 151.928 L 58.136 100.798 L 97.633 67.072 L 131.067 100.022 L 131.067 174.456 L 128.251 176 C 117.952 181.507 106.327 184.402 94.601 184.402 L 94.601 184.395 Z M 87.411 144.601 L 99.924 144.601 L 99.924 119.831 L 87.411 119.831 L 87.411 144.601 Z" style=""/>
  <text style="white-space: pre; fill: rgb(51, 51, 51); font-family: Arial, sans-serif; font-size: 11.2px;" x="280.418" y="170.083" transform="matrix(2.917787, 0, 0, 2.471681, -578.012268, -244.28566)">Water<tspan x="280.4179992675781" dy="1em">​</tspan><tspan x="280.4179992675781" dy="1em">​</tspan></text>
</svg>